<?xml version="1.0" encoding="utf-8" ?>
<svg xmlns="http://www.w3.org/2000/svg" xmlns:xlink="http://www.w3.org/1999/xlink" width="32" height="32">
	<path fill="#F3B391" transform="scale(0.0625 0.0625)" d="M308.346 73.1825C323.223 51.9526 352.12 47.4672 373.26 62.2023C392.309 75.4797 397.414 103.848 383.915 122.802C380.315 127.856 374.909 132.84 369.767 136.413C369.655 140.558 373.079 147.114 373.919 151.571C379.472 181.047 372.56 211.947 355.586 236.582C354.776 237.757 349.777 243.714 350.292 244.247C364.163 248.25 399.844 271.387 407.81 285.653C420.137 307.729 394.942 331.795 369.767 326.224C368.094 341.073 362.76 366.041 354.274 378.954Q354.848 379.479 355.404 380.025Q355.959 380.57 356.494 381.135Q357.029 381.701 357.543 382.285Q358.057 382.869 358.55 383.471Q359.043 384.073 359.514 384.693Q359.984 385.313 360.432 385.949Q360.881 386.586 361.305 387.238Q361.73 387.89 362.131 388.557Q362.532 389.224 362.909 389.905Q363.285 390.586 363.637 391.28Q363.989 391.975 364.315 392.681Q364.642 393.388 364.943 394.105Q365.243 394.823 365.518 395.551Q365.792 396.28 366.041 397.017Q366.289 397.755 366.51 398.501Q366.731 399.247 366.926 400.001Q367.12 400.754 367.287 401.515Q367.454 402.275 367.593 403.04Q367.732 403.806 367.844 404.576Q367.956 405.347 368.039 406.12Q368.123 406.894 368.179 407.67Q368.234 408.447 368.262 409.224Q368.29 410.002 368.289 410.78Q368.289 411.559 368.26 412.336Q368.232 413.114 368.175 413.89Q368.118 414.667 368.034 415.44Q367.949 416.214 367.837 416.984Q367.724 417.754 367.584 418.52Q367.443 419.285 367.276 420.045Q367.108 420.805 366.913 421.559Q366.718 422.312 366.495 423.058Q366.273 423.804 366.024 424.541Q365.775 425.278 365.499 426.006Q365.224 426.734 364.922 427.451Q364.621 428.169 364.293 428.875Q363.966 429.581 363.613 430.275Q363.261 430.969 362.883 431.649Q362.506 432.33 362.104 432.996Q361.702 433.663 361.277 434.315Q360.851 434.966 360.402 435.602Q359.954 436.238 359.482 436.857Q359.011 437.476 358.517 438.078Q358.023 438.68 357.508 439.263Q356.994 439.847 356.458 440.411Q355.922 440.976 355.366 441.521Q354.811 442.065 354.236 442.59Q353.66 443.114 353.067 443.617Q352.473 444.121 351.862 444.602Q351.25 445.084 350.622 445.543Q349.994 446.002 349.349 446.438Q348.704 446.874 348.045 447.287Q347.385 447.699 346.71 448.088Q346.036 448.476 345.348 448.84Q344.66 449.204 343.959 449.543Q343.259 449.882 342.546 450.195Q341.834 450.508 341.11 450.796Q340.387 451.083 339.654 451.344Q338.921 451.605 338.179 451.839Q337.437 452.074 336.686 452.281Q335.936 452.488 335.179 452.669Q334.422 452.849 333.659 453.001Q332.896 453.154 332.128 453.279Q331.359 453.404 330.587 453.501Q329.815 453.599 329.04 453.668Q328.265 453.737 327.488 453.778Q326.71 453.82 325.932 453.833Q325.154 453.846 324.376 453.831Q323.598 453.816 322.821 453.773Q322.044 453.73 321.269 453.659Q320.494 453.588 319.722 453.489Q318.95 453.39 318.182 453.263Q317.414 453.136 316.651 452.981Q315.888 452.827 315.132 452.645Q314.375 452.463 313.625 452.254Q312.876 452.045 312.134 451.808Q311.393 451.572 310.66 451.31Q309.927 451.047 309.205 450.758Q308.482 450.469 307.771 450.154Q307.059 449.839 306.359 449.498Q305.659 449.158 304.972 448.793Q304.285 448.427 303.611 448.037Q302.938 447.647 302.279 447.233Q301.62 446.819 300.976 446.381Q300.333 445.943 299.706 445.483Q299.078 445.022 298.468 444.539Q297.858 444.056 297.265 443.552Q296.673 443.047 296.099 442.521Q295.525 441.995 294.971 441.449Q294.416 440.903 293.882 440.337Q293.348 439.771 292.834 439.187Q292.32 438.602 291.828 437.999Q291.336 437.396 290.866 436.776Q290.396 436.155 289.949 435.519Q289.501 434.882 289.077 434.229Q288.653 433.576 288.253 432.909Q287.853 432.241 287.477 431.56C264.686 435.89 247.468 436.57 224.532 431.958Q224.145 432.636 223.734 433.3Q223.323 433.963 222.888 434.612Q222.454 435.26 221.996 435.892Q221.538 436.524 221.058 437.14Q220.577 437.755 220.075 438.352Q219.573 438.95 219.049 439.529Q218.525 440.108 217.981 440.667Q217.437 441.227 216.873 441.767Q216.309 442.306 215.726 442.825Q215.143 443.344 214.541 443.842Q213.94 444.339 213.321 444.815Q212.702 445.29 212.066 445.743Q211.43 446.196 210.778 446.625Q210.127 447.055 209.46 447.461Q208.793 447.866 208.112 448.248Q207.431 448.629 206.736 448.985Q206.042 449.342 205.335 449.673Q204.628 450.004 203.91 450.31Q203.191 450.615 202.463 450.894Q201.734 451.174 200.995 451.427Q200.257 451.679 199.509 451.905Q198.762 452.131 198.007 452.33Q197.253 452.529 196.491 452.7Q195.729 452.872 194.962 453.015Q194.195 453.159 193.423 453.275Q192.651 453.391 191.876 453.479Q191.1 453.567 190.322 453.627Q189.543 453.687 188.763 453.719Q187.984 453.75 187.203 453.754Q186.422 453.758 185.642 453.733Q184.862 453.708 184.083 453.656Q183.304 453.603 182.528 453.522Q181.752 453.441 180.979 453.332Q180.206 453.223 179.437 453.087Q178.669 452.95 177.906 452.785Q177.143 452.621 176.386 452.429Q175.629 452.237 174.88 452.018Q174.131 451.799 173.39 451.553Q172.649 451.307 171.918 451.035Q171.186 450.762 170.465 450.463Q169.744 450.164 169.034 449.84Q168.325 449.515 167.627 449.165Q166.929 448.815 166.245 448.44Q165.56 448.065 164.89 447.665Q164.219 447.266 163.563 446.842Q162.908 446.419 162.268 445.972Q161.628 445.525 161.004 445.055Q160.381 444.585 159.775 444.093Q159.169 443.601 158.581 443.088Q157.993 442.574 157.424 442.04Q156.855 441.505 156.306 440.951Q155.757 440.396 155.228 439.822Q154.699 439.248 154.191 438.655Q153.684 438.062 153.198 437.451Q152.712 436.841 152.248 436.213Q151.784 435.585 151.344 434.94Q150.903 434.296 150.486 433.636Q150.069 432.977 149.676 432.302Q149.283 431.628 148.914 430.939Q148.546 430.251 148.203 429.55Q147.86 428.849 147.542 428.136Q147.224 427.423 146.932 426.699Q146.641 425.975 146.375 425.241Q146.11 424.507 145.871 423.764Q145.632 423.021 145.421 422.27Q145.209 421.518 145.024 420.76Q144.84 420.001 144.683 419.237Q144.526 418.472 144.397 417.702Q144.267 416.932 144.166 416.159Q144.065 415.385 143.992 414.607Q143.918 413.83 143.873 413.051Q143.828 412.272 143.811 411.491Q143.794 410.711 143.805 409.931Q143.816 409.15 143.856 408.371Q143.895 407.591 143.962 406.813Q144.03 406.036 144.125 405.261Q144.221 404.486 144.344 403.716Q144.468 402.945 144.619 402.179Q144.77 401.413 144.949 400.653Q145.128 399.894 145.334 399.141Q145.54 398.388 145.773 397.643Q146.007 396.898 146.267 396.162Q146.527 395.426 146.813 394.7Q147.099 393.974 147.412 393.258Q147.724 392.543 148.062 391.84Q148.4 391.136 148.763 390.445Q149.127 389.754 149.514 389.077Q149.902 388.399 150.315 387.737Q150.727 387.074 151.163 386.426Q151.598 385.779 152.057 385.147Q152.516 384.516 152.998 383.901Q153.479 383.287 153.983 382.69Q154.486 382.094 155.01 381.516Q155.535 380.938 156.08 380.379Q156.625 379.82 157.19 379.282Q157.755 378.743 158.339 378.225C150.761 366.976 145.08 338.3 143.74 325.171C111.938 335.962 87.3041 296.467 112.37 274.08C117.324 269.655 123.731 266.632 129.441 263.286C139.066 257.645 152.35 248.765 162.269 244.247C137.021 210.086 129.492 178.555 143.74 136.413C114.512 119.683 113.429 77.8412 141.948 60.2643C162.196 47.785 190.339 54.0361 202.759 74.4674C204.223 74.284 208.686 71.5984 210.493 70.9042C230.991 63.0323 253.249 60.7465 274.998 63.8565C287.997 65.7153 296.405 69.2885 308.346 73.1825Z"/>
	<path fill="#FEFADC" transform="scale(0.0625 0.0625)" d="M193.805 367.884C194.144 364.2 195.413 360.702 196.623 357.227C220.664 288.207 301.357 296.557 317.488 368.366Q318.098 368.255 318.711 368.162Q319.323 368.068 319.938 367.992Q320.554 367.917 321.171 367.859Q321.788 367.801 322.406 367.76Q323.025 367.72 323.644 367.698Q324.264 367.675 324.883 367.671Q325.503 367.666 326.123 367.679Q326.743 367.692 327.362 367.723Q327.981 367.754 328.599 367.803Q329.216 367.852 329.833 367.919Q330.449 367.985 331.063 368.07Q331.677 368.154 332.288 368.256Q332.9 368.358 333.508 368.477Q334.116 368.597 334.721 368.733Q335.325 368.87 335.925 369.025Q336.526 369.179 337.121 369.35Q337.717 369.522 338.308 369.71Q338.898 369.899 339.483 370.104Q340.068 370.31 340.646 370.532Q341.225 370.754 341.797 370.993Q342.369 371.231 342.934 371.486Q343.499 371.741 344.056 372.013Q344.613 372.284 345.163 372.571Q345.712 372.858 346.253 373.161Q346.794 373.464 347.325 373.782Q347.857 374.1 348.38 374.433Q348.902 374.767 349.415 375.115Q349.928 375.464 350.43 375.826Q350.933 376.189 351.424 376.566Q351.916 376.944 352.397 377.335Q352.878 377.726 353.347 378.131Q353.816 378.536 354.274 378.954Q354.848 379.479 355.404 380.025Q355.959 380.57 356.494 381.135Q357.029 381.701 357.543 382.285Q358.057 382.869 358.55 383.471Q359.043 384.073 359.514 384.693Q359.984 385.313 360.432 385.949Q360.881 386.586 361.305 387.238Q361.73 387.89 362.131 388.557Q362.532 389.224 362.909 389.905Q363.285 390.586 363.637 391.28Q363.989 391.975 364.315 392.681Q364.642 393.388 364.943 394.105Q365.243 394.823 365.518 395.551Q365.792 396.28 366.041 397.017Q366.289 397.755 366.51 398.501Q366.731 399.247 366.926 400.001Q367.12 400.754 367.287 401.515Q367.454 402.275 367.593 403.04Q367.732 403.806 367.844 404.576Q367.956 405.347 368.039 406.12Q368.123 406.894 368.179 407.67Q368.234 408.447 368.262 409.224Q368.29 410.002 368.289 410.78Q368.289 411.559 368.26 412.336Q368.232 413.114 368.175 413.89Q368.118 414.667 368.034 415.44Q367.949 416.214 367.837 416.984Q367.724 417.754 367.584 418.52Q367.443 419.285 367.276 420.045Q367.108 420.805 366.913 421.559Q366.718 422.312 366.495 423.058Q366.273 423.804 366.024 424.541Q365.775 425.278 365.499 426.006Q365.224 426.734 364.922 427.451Q364.621 428.169 364.293 428.875Q363.966 429.581 363.613 430.275Q363.261 430.969 362.883 431.649Q362.506 432.33 362.104 432.996Q361.702 433.663 361.277 434.315Q360.851 434.966 360.402 435.602Q359.954 436.238 359.482 436.857Q359.011 437.476 358.517 438.078Q358.023 438.68 357.508 439.263Q356.994 439.847 356.458 440.411Q355.922 440.976 355.366 441.521Q354.811 442.065 354.236 442.59Q353.66 443.114 353.067 443.617Q352.473 444.121 351.862 444.602Q351.25 445.084 350.622 445.543Q349.994 446.002 349.349 446.438Q348.704 446.874 348.045 447.287Q347.385 447.699 346.71 448.088Q346.036 448.476 345.348 448.84Q344.66 449.204 343.959 449.543Q343.259 449.882 342.546 450.195Q341.834 450.508 341.11 450.796Q340.387 451.083 339.654 451.344Q338.921 451.605 338.179 451.839Q337.437 452.074 336.686 452.281Q335.936 452.488 335.179 452.669Q334.422 452.849 333.659 453.001Q332.896 453.154 332.128 453.279Q331.359 453.404 330.587 453.501Q329.815 453.599 329.04 453.668Q328.265 453.737 327.488 453.778Q326.71 453.82 325.932 453.833Q325.154 453.846 324.376 453.831Q323.598 453.816 322.821 453.773Q322.044 453.73 321.269 453.659Q320.494 453.588 319.722 453.489Q318.95 453.39 318.182 453.263Q317.414 453.136 316.651 452.981Q315.888 452.827 315.132 452.645Q314.375 452.463 313.625 452.254Q312.876 452.045 312.134 451.808Q311.393 451.572 310.66 451.31Q309.927 451.047 309.205 450.758Q308.482 450.469 307.771 450.154Q307.059 449.839 306.359 449.498Q305.659 449.158 304.972 448.793Q304.285 448.427 303.611 448.037Q302.938 447.647 302.279 447.233Q301.62 446.819 300.976 446.381Q300.333 445.943 299.706 445.483Q299.078 445.022 298.468 444.539Q297.858 444.056 297.265 443.552Q296.673 443.047 296.099 442.521Q295.525 441.995 294.971 441.449Q294.416 440.903 293.882 440.337Q293.348 439.771 292.834 439.187Q292.32 438.602 291.828 437.999Q291.336 437.396 290.866 436.776Q290.396 436.155 289.949 435.519Q289.501 434.882 289.077 434.229Q288.653 433.576 288.253 432.909Q287.853 432.241 287.477 431.56C264.686 435.89 247.468 436.57 224.532 431.958Q224.145 432.636 223.734 433.3Q223.323 433.963 222.888 434.612Q222.454 435.26 221.996 435.892Q221.538 436.524 221.058 437.14Q220.577 437.755 220.075 438.352Q219.573 438.95 219.049 439.529Q218.525 440.108 217.981 440.667Q217.437 441.227 216.873 441.767Q216.309 442.306 215.726 442.825Q215.143 443.344 214.541 443.842Q213.94 444.339 213.321 444.815Q212.702 445.29 212.066 445.743Q211.43 446.196 210.778 446.625Q210.127 447.055 209.46 447.461Q208.793 447.866 208.112 448.248Q207.431 448.629 206.736 448.985Q206.042 449.342 205.335 449.673Q204.628 450.004 203.91 450.31Q203.191 450.615 202.463 450.894Q201.734 451.174 200.995 451.427Q200.257 451.679 199.509 451.905Q198.762 452.131 198.007 452.33Q197.253 452.529 196.491 452.7Q195.729 452.872 194.962 453.015Q194.195 453.159 193.423 453.275Q192.651 453.391 191.876 453.479Q191.1 453.567 190.322 453.627Q189.543 453.687 188.763 453.719Q187.984 453.75 187.203 453.754Q186.422 453.758 185.642 453.733Q184.862 453.708 184.083 453.656Q183.304 453.603 182.528 453.522Q181.752 453.441 180.979 453.332Q180.206 453.223 179.437 453.087Q178.669 452.95 177.906 452.785Q177.143 452.621 176.386 452.429Q175.629 452.237 174.88 452.018Q174.131 451.799 173.39 451.553Q172.649 451.307 171.918 451.035Q171.186 450.762 170.465 450.463Q169.744 450.164 169.034 449.84Q168.325 449.515 167.627 449.165Q166.929 448.815 166.245 448.44Q165.56 448.065 164.89 447.665Q164.219 447.266 163.563 446.842Q162.908 446.419 162.268 445.972Q161.628 445.525 161.004 445.055Q160.381 444.585 159.775 444.093Q159.169 443.601 158.581 443.088Q157.993 442.574 157.424 442.04Q156.855 441.505 156.306 440.951Q155.757 440.396 155.228 439.822Q154.699 439.248 154.191 438.655Q153.684 438.062 153.198 437.451Q152.712 436.841 152.248 436.213Q151.784 435.585 151.344 434.94Q150.903 434.296 150.486 433.636Q150.069 432.977 149.676 432.302Q149.283 431.628 148.914 430.939Q148.546 430.251 148.203 429.55Q147.86 428.849 147.542 428.136Q147.224 427.423 146.932 426.699Q146.641 425.975 146.375 425.241Q146.11 424.507 145.871 423.764Q145.632 423.021 145.421 422.27Q145.209 421.518 145.024 420.76Q144.84 420.001 144.683 419.237Q144.526 418.472 144.397 417.702Q144.267 416.932 144.166 416.159Q144.065 415.385 143.992 414.607Q143.918 413.83 143.873 413.051Q143.828 412.272 143.811 411.491Q143.794 410.711 143.805 409.931Q143.816 409.15 143.856 408.371Q143.895 407.591 143.962 406.813Q144.03 406.036 144.125 405.261Q144.221 404.486 144.344 403.716Q144.468 402.945 144.619 402.179Q144.77 401.413 144.949 400.653Q145.128 399.894 145.334 399.141Q145.54 398.388 145.773 397.643Q146.007 396.898 146.267 396.162Q146.527 395.426 146.813 394.7Q147.099 393.974 147.412 393.258Q147.724 392.543 148.062 391.84Q148.4 391.136 148.763 390.445Q149.127 389.754 149.514 389.077Q149.902 388.399 150.315 387.737Q150.727 387.074 151.163 386.426Q151.598 385.779 152.057 385.147Q152.516 384.516 152.998 383.901Q153.479 383.287 153.983 382.69Q154.486 382.094 155.01 381.516Q155.535 380.938 156.08 380.379Q156.625 379.82 157.19 379.282Q157.755 378.743 158.339 378.225Q159.232 377.433 160.167 376.692Q161.102 375.951 162.076 375.263Q163.051 374.574 164.062 373.94Q165.073 373.307 166.118 372.73Q167.162 372.153 168.237 371.635Q169.311 371.117 170.413 370.658Q171.515 370.2 172.64 369.803Q173.765 369.407 174.911 369.073Q176.056 368.739 177.219 368.468Q178.381 368.198 179.556 367.992Q180.731 367.787 181.916 367.646Q183.101 367.506 184.292 367.431Q185.483 367.356 186.676 367.347Q187.869 367.338 189.061 367.394Q190.253 367.451 191.44 367.574Q192.627 367.696 193.805 367.884Z"/>
	<path fill="#F4A678" transform="scale(0.0625 0.0625)" d="M158.339 378.225Q159.232 377.433 160.167 376.692Q161.102 375.951 162.076 375.263Q163.051 374.574 164.062 373.94Q165.073 373.307 166.118 372.73Q167.162 372.153 168.237 371.635Q169.311 371.117 170.413 370.658Q171.515 370.2 172.64 369.803Q173.765 369.407 174.911 369.073Q176.056 368.739 177.219 368.468Q178.381 368.198 179.556 367.992Q180.731 367.787 181.916 367.646Q183.101 367.506 184.292 367.431Q185.483 367.356 186.676 367.347Q187.869 367.338 189.061 367.394Q190.253 367.451 191.44 367.574Q192.627 367.696 193.805 367.884Q194.992 368.073 196.167 368.328Q197.342 368.583 198.501 368.903Q199.66 369.223 200.799 369.607Q201.938 369.991 203.054 370.437Q204.17 370.884 205.26 371.392Q206.349 371.9 207.409 372.467Q208.469 373.035 209.495 373.661Q210.522 374.287 211.512 374.969Q212.502 375.651 213.452 376.387Q214.403 377.123 215.311 377.91Q216.219 378.698 217.082 379.535Q217.945 380.372 218.761 381.255Q219.576 382.139 220.34 383.067Q221.105 383.994 221.817 384.963Q222.529 385.932 223.186 386.938Q223.843 387.945 224.443 388.987Q225.043 390.029 225.584 391.102Q226.125 392.176 226.606 393.278Q227.086 394.38 227.505 395.507Q227.924 396.634 228.279 397.782Q228.634 398.931 228.925 400.097Q229.216 401.264 229.441 402.445Q229.667 403.626 229.826 404.817Q229.986 406.009 230.079 407.207Q230.172 408.406 230.198 409.608Q230.224 410.81 230.184 412.011Q230.143 413.213 230.036 414.41Q229.928 415.608 229.754 416.797Q229.58 417.987 229.341 419.165Q229.101 420.343 228.796 421.506Q228.491 422.669 228.122 423.813Q227.753 424.957 227.321 426.079Q226.148 429.124 224.532 431.958Q224.145 432.636 223.734 433.3Q223.323 433.963 222.888 434.612Q222.454 435.26 221.996 435.892Q221.538 436.524 221.058 437.14Q220.577 437.755 220.075 438.352Q219.573 438.95 219.049 439.529Q218.525 440.108 217.981 440.667Q217.437 441.227 216.873 441.767Q216.309 442.306 215.726 442.825Q215.143 443.344 214.541 443.842Q213.94 444.339 213.321 444.815Q212.702 445.29 212.066 445.743Q211.43 446.196 210.778 446.625Q210.127 447.055 209.46 447.461Q208.793 447.866 208.112 448.248Q207.431 448.629 206.736 448.985Q206.042 449.342 205.335 449.673Q204.628 450.004 203.91 450.31Q203.191 450.615 202.463 450.894Q201.734 451.174 200.995 451.427Q200.257 451.679 199.509 451.905Q198.762 452.131 198.007 452.33Q197.253 452.529 196.491 452.7Q195.729 452.872 194.962 453.015Q194.195 453.159 193.423 453.275Q192.651 453.391 191.876 453.479Q191.1 453.567 190.322 453.627Q189.543 453.687 188.763 453.719Q187.984 453.75 187.203 453.754Q186.422 453.758 185.642 453.733Q184.862 453.708 184.083 453.656Q183.304 453.603 182.528 453.522Q181.752 453.441 180.979 453.332Q180.206 453.223 179.437 453.087Q178.669 452.95 177.906 452.785Q177.143 452.621 176.386 452.429Q175.629 452.237 174.88 452.018Q174.131 451.799 173.39 451.553Q172.649 451.307 171.918 451.035Q171.186 450.762 170.465 450.463Q169.744 450.164 169.034 449.84Q168.325 449.515 167.627 449.165Q166.929 448.815 166.245 448.44Q165.56 448.065 164.89 447.665Q164.219 447.266 163.563 446.842Q162.908 446.419 162.268 445.972Q161.628 445.525 161.004 445.055Q160.381 444.585 159.775 444.093Q159.169 443.601 158.581 443.088Q157.993 442.574 157.424 442.04Q156.855 441.505 156.306 440.951Q155.757 440.396 155.228 439.822Q154.699 439.248 154.191 438.655Q153.684 438.062 153.198 437.451Q152.712 436.841 152.248 436.213Q151.784 435.585 151.344 434.94Q150.903 434.296 150.486 433.636Q150.069 432.977 149.676 432.302Q149.283 431.628 148.914 430.939Q148.546 430.251 148.203 429.55Q147.86 428.849 147.542 428.136Q147.224 427.423 146.932 426.699Q146.641 425.975 146.375 425.241Q146.11 424.507 145.871 423.764Q145.632 423.021 145.421 422.27Q145.209 421.518 145.024 420.76Q144.84 420.001 144.683 419.237Q144.526 418.472 144.397 417.702Q144.267 416.932 144.166 416.159Q144.065 415.385 143.992 414.607Q143.918 413.83 143.873 413.051Q143.828 412.272 143.811 411.491Q143.794 410.711 143.805 409.931Q143.816 409.15 143.856 408.371Q143.895 407.591 143.962 406.813Q144.03 406.036 144.125 405.261Q144.221 404.486 144.344 403.716Q144.468 402.945 144.619 402.179Q144.77 401.413 144.949 400.653Q145.128 399.894 145.334 399.141Q145.54 398.388 145.773 397.643Q146.007 396.898 146.267 396.162Q146.527 395.426 146.813 394.7Q147.099 393.974 147.412 393.258Q147.724 392.543 148.062 391.84Q148.4 391.136 148.763 390.445Q149.127 389.754 149.514 389.077Q149.902 388.399 150.315 387.737Q150.727 387.074 151.163 386.426Q151.598 385.779 152.057 385.147Q152.516 384.516 152.998 383.901Q153.479 383.287 153.983 382.69Q154.486 382.094 155.01 381.516Q155.535 380.938 156.08 380.379Q156.625 379.82 157.19 379.282Q157.755 378.743 158.339 378.225Z"/>
	<path fill="#E32A00" transform="scale(0.0625 0.0625)" d="M185.287 390.56Q185.78 390.529 186.275 390.522Q186.769 390.515 187.263 390.532Q187.757 390.549 188.249 390.591Q188.742 390.632 189.232 390.698Q189.722 390.764 190.208 390.854Q190.694 390.944 191.175 391.057Q191.656 391.171 192.131 391.308Q192.606 391.445 193.073 391.606Q193.541 391.766 194 391.949Q194.459 392.133 194.908 392.338Q195.358 392.544 195.797 392.771Q196.235 392.999 196.663 393.247Q197.09 393.496 197.504 393.766Q197.918 394.035 198.319 394.325Q198.719 394.615 199.105 394.923Q199.491 395.232 199.861 395.56Q200.231 395.888 200.585 396.233Q200.939 396.578 201.275 396.941Q201.611 397.303 201.929 397.682Q202.247 398.06 202.546 398.454Q202.845 398.847 203.124 399.255Q203.403 399.663 203.662 400.084Q203.92 400.506 204.158 400.939Q204.396 401.372 204.612 401.817Q204.828 402.261 205.022 402.716Q205.216 403.171 205.387 403.634Q205.558 404.098 205.707 404.57Q205.855 405.041 205.98 405.519Q206.105 405.998 206.206 406.481Q206.307 406.965 206.385 407.453Q206.462 407.942 206.515 408.433Q206.568 408.925 206.597 409.418Q206.626 409.911 206.63 410.406Q206.635 410.9 206.615 411.394Q206.595 411.888 206.551 412.38Q206.507 412.872 206.439 413.362Q206.371 413.851 206.279 414.337Q206.186 414.823 206.07 415.303Q205.954 415.784 205.815 416.258Q205.675 416.732 205.513 417.199Q205.35 417.665 205.164 418.124Q204.979 418.582 204.771 419.03Q204.563 419.479 204.334 419.916Q204.104 420.354 203.853 420.78Q203.602 421.206 203.331 421.619Q203.059 422.032 202.767 422.431Q202.476 422.83 202.165 423.214Q201.854 423.599 201.525 423.967Q201.195 424.336 200.848 424.688Q200.501 425.039 200.137 425.374Q199.773 425.708 199.393 426.024Q199.013 426.34 198.618 426.637Q198.223 426.934 197.813 427.211Q197.404 427.488 196.982 427.745Q196.559 428.002 196.125 428.237Q195.69 428.473 195.245 428.687Q194.799 428.9 194.343 429.092Q193.888 429.284 193.423 429.453Q192.959 429.622 192.487 429.768Q192.014 429.914 191.536 430.036Q191.057 430.159 190.572 430.258Q190.088 430.356 189.599 430.431Q189.111 430.506 188.619 430.557Q188.128 430.608 187.634 430.634Q187.144 430.66 186.652 430.663Q186.161 430.665 185.67 430.643Q185.18 430.621 184.691 430.576Q184.202 430.53 183.715 430.46Q183.229 430.391 182.747 430.297Q182.265 430.204 181.788 430.087Q181.311 429.971 180.84 429.831Q180.369 429.691 179.906 429.528Q179.442 429.365 178.987 429.18Q178.532 428.994 178.087 428.787Q177.642 428.58 177.207 428.351Q176.773 428.122 176.35 427.872Q175.927 427.622 175.517 427.352Q175.106 427.082 174.71 426.792Q174.314 426.502 173.932 426.193Q173.55 425.884 173.184 425.557Q172.818 425.229 172.468 424.885Q172.118 424.54 171.785 424.178Q171.453 423.817 171.139 423.439Q170.824 423.062 170.529 422.67Q170.233 422.277 169.957 421.871Q169.681 421.465 169.425 421.045Q169.169 420.626 168.934 420.195Q168.699 419.764 168.486 419.321Q168.272 418.879 168.08 418.427Q167.888 417.975 167.719 417.513Q167.55 417.052 167.403 416.584Q167.256 416.115 167.133 415.64Q167.009 415.164 166.909 414.683Q166.809 414.202 166.733 413.717Q166.656 413.232 166.603 412.744Q166.551 412.255 166.522 411.765Q166.493 411.275 166.489 410.784Q166.484 410.292 166.503 409.802Q166.522 409.311 166.566 408.821Q166.609 408.332 166.676 407.846Q166.743 407.359 166.834 406.876Q166.925 406.394 167.04 405.916Q167.154 405.438 167.292 404.967Q167.429 404.495 167.59 404.031Q167.751 403.567 167.934 403.111Q168.117 402.655 168.322 402.209Q168.527 401.763 168.754 401.327Q168.98 400.891 169.228 400.467Q169.476 400.043 169.744 399.631Q170.012 399.22 170.3 398.822Q170.588 398.424 170.895 398.041Q171.203 397.657 171.528 397.29Q171.854 396.922 172.197 396.57Q172.54 396.219 172.9 395.885Q173.26 395.55 173.635 395.234Q174.011 394.918 174.402 394.62Q174.793 394.323 175.198 394.045Q175.603 393.767 176.021 393.509Q176.439 393.251 176.869 393.014Q177.299 392.777 177.74 392.561Q178.182 392.345 178.633 392.151Q179.084 391.957 179.544 391.785Q180.005 391.614 180.473 391.465Q180.941 391.316 181.415 391.19Q181.89 391.064 182.371 390.962Q182.851 390.859 183.336 390.78Q183.821 390.701 184.309 390.646Q184.797 390.591 185.287 390.56Z"/>
	<path fill="#F4A678" transform="scale(0.0625 0.0625)" d="M317.488 368.366Q318.098 368.255 318.711 368.162Q319.323 368.068 319.938 367.992Q320.554 367.917 321.171 367.859Q321.788 367.801 322.406 367.76Q323.025 367.72 323.644 367.698Q324.264 367.675 324.883 367.671Q325.503 367.666 326.123 367.679Q326.743 367.692 327.362 367.723Q327.981 367.754 328.599 367.803Q329.216 367.852 329.833 367.919Q330.449 367.985 331.063 368.07Q331.677 368.154 332.288 368.256Q332.9 368.358 333.508 368.477Q334.116 368.597 334.721 368.733Q335.325 368.87 335.925 369.025Q336.526 369.179 337.121 369.35Q337.717 369.522 338.308 369.71Q338.898 369.899 339.483 370.104Q340.068 370.31 340.646 370.532Q341.225 370.754 341.797 370.993Q342.369 371.231 342.934 371.486Q343.499 371.741 344.056 372.013Q344.613 372.284 345.163 372.571Q345.712 372.858 346.253 373.161Q346.794 373.464 347.325 373.782Q347.857 374.1 348.38 374.433Q348.902 374.767 349.415 375.115Q349.928 375.464 350.43 375.826Q350.933 376.189 351.424 376.566Q351.916 376.944 352.397 377.335Q352.878 377.726 353.347 378.131Q353.816 378.536 354.274 378.954Q354.848 379.479 355.404 380.025Q355.959 380.57 356.494 381.135Q357.029 381.701 357.543 382.285Q358.057 382.869 358.55 383.471Q359.043 384.073 359.514 384.693Q359.984 385.313 360.432 385.949Q360.881 386.586 361.305 387.238Q361.73 387.89 362.131 388.557Q362.532 389.224 362.909 389.905Q363.285 390.586 363.637 391.28Q363.989 391.975 364.315 392.681Q364.642 393.388 364.943 394.105Q365.243 394.823 365.518 395.551Q365.792 396.28 366.041 397.017Q366.289 397.755 366.51 398.501Q366.731 399.247 366.926 400.001Q367.12 400.754 367.287 401.515Q367.454 402.275 367.593 403.04Q367.732 403.806 367.844 404.576Q367.956 405.347 368.039 406.12Q368.123 406.894 368.179 407.67Q368.234 408.447 368.262 409.224Q368.29 410.002 368.289 410.78Q368.289 411.559 368.26 412.336Q368.232 413.114 368.175 413.89Q368.118 414.667 368.034 415.44Q367.949 416.214 367.837 416.984Q367.724 417.754 367.584 418.52Q367.443 419.285 367.276 420.045Q367.108 420.805 366.913 421.559Q366.718 422.312 366.495 423.058Q366.273 423.804 366.024 424.541Q365.775 425.278 365.499 426.006Q365.224 426.734 364.922 427.451Q364.621 428.169 364.293 428.875Q363.966 429.581 363.613 430.275Q363.261 430.969 362.883 431.649Q362.506 432.33 362.104 432.996Q361.702 433.663 361.277 434.315Q360.851 434.966 360.402 435.602Q359.954 436.238 359.482 436.857Q359.011 437.476 358.517 438.078Q358.023 438.68 357.508 439.263Q356.994 439.847 356.458 440.411Q355.922 440.976 355.366 441.521Q354.811 442.065 354.236 442.59Q353.66 443.114 353.067 443.617Q352.473 444.121 351.862 444.602Q351.25 445.084 350.622 445.543Q349.994 446.002 349.349 446.438Q348.704 446.874 348.045 447.287Q347.385 447.699 346.71 448.088Q346.036 448.476 345.348 448.84Q344.66 449.204 343.959 449.543Q343.259 449.882 342.546 450.195Q341.834 450.508 341.11 450.796Q340.387 451.083 339.654 451.344Q338.921 451.605 338.179 451.839Q337.437 452.074 336.686 452.281Q335.936 452.488 335.179 452.669Q334.422 452.849 333.659 453.001Q332.896 453.154 332.128 453.279Q331.359 453.404 330.587 453.501Q329.815 453.599 329.04 453.668Q328.265 453.737 327.488 453.778Q326.71 453.82 325.932 453.833Q325.154 453.846 324.376 453.831Q323.598 453.816 322.821 453.773Q322.044 453.73 321.269 453.659Q320.494 453.588 319.722 453.489Q318.95 453.39 318.182 453.263Q317.414 453.136 316.651 452.981Q315.888 452.827 315.132 452.645Q314.375 452.463 313.625 452.254Q312.876 452.045 312.134 451.808Q311.393 451.572 310.66 451.31Q309.927 451.047 309.205 450.758Q308.482 450.469 307.771 450.154Q307.059 449.839 306.359 449.498Q305.659 449.158 304.972 448.793Q304.285 448.427 303.611 448.037Q302.938 447.647 302.279 447.233Q301.62 446.819 300.976 446.381Q300.333 445.943 299.706 445.483Q299.078 445.022 298.468 444.539Q297.858 444.056 297.265 443.552Q296.673 443.047 296.099 442.521Q295.525 441.995 294.971 441.449Q294.416 440.903 293.882 440.337Q293.348 439.771 292.834 439.187Q292.32 438.602 291.828 437.999Q291.336 437.396 290.866 436.776Q290.396 436.155 289.949 435.519Q289.501 434.882 289.077 434.229Q288.653 433.576 288.253 432.909Q287.853 432.241 287.477 431.56Q285.846 428.603 284.696 425.427Q284.297 424.326 283.959 423.206Q283.621 422.085 283.344 420.948Q283.067 419.811 282.852 418.66Q282.637 417.51 282.485 416.349Q282.333 415.189 282.245 414.022Q282.156 412.854 282.131 411.684Q282.105 410.514 282.144 409.344Q282.182 408.174 282.284 407.008Q282.385 405.842 282.55 404.684Q282.715 403.525 282.943 402.377Q283.17 401.228 283.46 400.094Q283.75 398.96 284.1 397.844Q284.451 396.727 284.862 395.631Q285.273 394.535 285.743 393.463Q286.212 392.391 286.74 391.346Q287.267 390.301 287.85 389.286Q288.433 388.271 289.071 387.29Q289.708 386.308 290.398 385.362Q291.088 384.417 291.828 383.51Q292.568 382.603 293.356 381.738Q294.144 380.873 294.978 380.052Q295.812 379.231 296.69 378.456Q297.567 377.681 298.485 376.955Q299.404 376.229 300.36 375.555Q301.316 374.88 302.308 374.258Q303.299 373.636 304.323 373.068Q305.347 372.501 306.4 371.99Q307.453 371.479 308.532 371.026Q309.611 370.573 310.713 370.18Q311.816 369.786 312.938 369.453Q314.06 369.119 315.198 368.848Q316.337 368.576 317.488 368.366Z"/>
	<path fill="#E32A00" transform="scale(0.0625 0.0625)" d="M323.411 391.111Q323.891 391.062 324.373 391.038Q324.855 391.013 325.338 391.011Q325.82 391.01 326.302 391.032Q326.784 391.055 327.265 391.101Q327.745 391.147 328.223 391.216Q328.7 391.286 329.174 391.379Q329.647 391.471 330.116 391.587Q330.584 391.703 331.046 391.842Q331.508 391.981 331.963 392.142Q332.418 392.304 332.864 392.487Q333.311 392.671 333.748 392.876Q334.184 393.081 334.611 393.307Q335.037 393.533 335.451 393.78Q335.866 394.027 336.268 394.294Q336.67 394.561 337.059 394.847Q337.447 395.134 337.821 395.439Q338.195 395.744 338.553 396.067Q338.912 396.39 339.254 396.73Q339.596 397.07 339.922 397.427Q340.247 397.783 340.554 398.156Q340.861 398.528 341.15 398.914Q341.438 399.301 341.708 399.702Q341.977 400.102 342.226 400.515Q342.476 400.928 342.704 401.353Q342.933 401.778 343.141 402.214Q343.349 402.649 343.535 403.095Q343.721 403.54 343.885 403.994Q344.049 404.448 344.19 404.909Q344.332 405.37 344.451 405.838Q344.569 406.306 344.665 406.779Q344.761 407.252 344.833 407.729Q344.905 408.206 344.954 408.686Q345.003 409.166 345.028 409.648Q345.053 410.13 345.055 410.613Q345.057 411.095 345.034 411.577Q345.012 412.059 344.967 412.54Q344.921 413.02 344.852 413.498Q344.782 413.975 344.69 414.449Q344.597 414.923 344.482 415.391Q344.366 415.86 344.227 416.322Q344.089 416.784 343.928 417.239Q343.767 417.694 343.584 418.141Q343.4 418.587 343.196 419.024Q342.991 419.461 342.765 419.887Q342.539 420.314 342.292 420.729Q342.045 421.143 341.779 421.546Q341.512 421.948 341.226 422.336Q340.94 422.725 340.635 423.099Q340.33 423.473 340.007 423.832Q339.684 424.191 339.344 424.533Q339.004 424.875 338.648 425.201Q338.291 425.526 337.919 425.834Q337.547 426.141 337.161 426.43Q336.774 426.719 336.374 426.988Q335.974 427.258 335.561 427.508Q335.148 427.757 334.723 427.986Q334.298 428.215 333.863 428.423Q333.427 428.631 332.982 428.817Q332.537 429.004 332.083 429.168Q331.629 429.332 331.168 429.474Q330.707 429.616 330.239 429.735Q329.771 429.854 329.298 429.95Q328.825 430.046 328.348 430.118Q327.871 430.191 327.391 430.24Q326.911 430.289 326.428 430.315Q325.946 430.34 325.463 430.342Q324.98 430.344 324.498 430.322Q324.015 430.3 323.535 430.254Q323.054 430.209 322.576 430.14Q322.098 430.07 321.624 429.978Q321.15 429.885 320.681 429.77Q320.212 429.654 319.749 429.516Q319.287 429.377 318.832 429.216Q318.376 429.055 317.929 428.872Q317.483 428.689 317.045 428.484Q316.608 428.279 316.181 428.052Q315.755 427.826 315.339 427.58Q314.924 427.333 314.522 427.066Q314.119 426.799 313.731 426.513Q313.342 426.226 312.967 425.921Q312.593 425.616 312.234 425.293Q311.875 424.97 311.532 424.63Q311.19 424.289 310.864 423.932Q310.539 423.576 310.231 423.203Q309.923 422.831 309.634 422.444Q309.345 422.057 309.076 421.657Q308.806 421.256 308.557 420.843Q308.307 420.429 308.078 420.004Q307.849 419.579 307.641 419.143Q307.433 418.707 307.247 418.262Q307.06 417.816 306.896 417.362Q306.732 416.908 306.59 416.446Q306.449 415.984 306.33 415.516Q306.211 415.048 306.115 414.575Q306.02 414.101 305.947 413.624Q305.875 413.146 305.826 412.666Q305.777 412.186 305.752 411.703Q305.727 411.221 305.725 410.738Q305.724 410.255 305.746 409.773Q305.768 409.29 305.814 408.81Q305.86 408.329 305.929 407.851Q305.998 407.373 306.091 406.899Q306.184 406.425 306.3 405.956Q306.416 405.488 306.555 405.025Q306.693 404.563 306.855 404.107Q307.016 403.652 307.199 403.206Q307.383 402.759 307.588 402.322Q307.793 401.884 308.02 401.458Q308.246 401.031 308.493 400.616Q308.74 400.201 309.007 399.799Q309.274 399.397 309.561 399.008Q309.847 398.619 310.153 398.245Q310.458 397.871 310.781 397.512Q311.104 397.153 311.445 396.811Q311.785 396.469 312.142 396.143Q312.499 395.818 312.872 395.51Q313.244 395.203 313.631 394.914Q314.018 394.625 314.419 394.356Q314.82 394.087 315.233 393.837Q315.647 393.588 316.072 393.359Q316.497 393.13 316.933 392.922Q317.369 392.715 317.815 392.529Q318.261 392.343 318.715 392.179Q319.169 392.015 319.631 391.873Q320.093 391.732 320.561 391.613Q321.029 391.495 321.502 391.399Q321.976 391.304 322.453 391.232Q322.931 391.16 323.411 391.111Z"/>
	<path fill="#F6D4BA" transform="scale(0.0625 0.0625)" d="M284.696 425.427Q285.846 428.603 287.477 431.56C264.686 435.89 247.468 436.57 224.532 431.958Q226.148 429.124 227.321 426.079C245.134 427.205 254.234 430.582 274.21 427.012C277.694 426.39 281.138 425.39 284.696 425.427Z"/>
	<path fill="#F6D4BA" transform="scale(0.0625 0.0625)" d="M163.651 245.924C165.893 248.631 168.682 251.07 171.267 253.45C215.845 294.505 296.671 295.047 340.803 253.288C343.587 250.654 346.808 245.749 350.292 244.247L350.439 244.709C352.261 250.265 355.815 256.184 358.043 261.868C366.558 283.59 370.302 302.849 369.767 326.224C368.094 341.073 362.76 366.041 354.274 378.954Q353.816 378.536 353.347 378.131Q352.878 377.726 352.397 377.335Q351.916 376.944 351.424 376.566Q350.933 376.189 350.43 375.826Q349.928 375.464 349.415 375.115Q348.902 374.767 348.38 374.434Q347.857 374.1 347.325 373.782Q346.794 373.464 346.253 373.161Q345.712 372.858 345.163 372.571Q344.613 372.284 344.056 372.013Q343.499 371.741 342.934 371.486Q342.369 371.231 341.797 370.993Q341.225 370.754 340.646 370.532Q340.068 370.31 339.483 370.104Q338.898 369.899 338.308 369.71Q337.717 369.522 337.121 369.35Q336.526 369.179 335.926 369.025Q335.325 368.87 334.721 368.733Q334.116 368.597 333.508 368.477Q332.9 368.358 332.288 368.256Q331.677 368.154 331.063 368.07Q330.449 367.985 329.833 367.919Q329.216 367.852 328.599 367.803Q327.981 367.754 327.362 367.723Q326.743 367.692 326.123 367.679Q325.503 367.666 324.883 367.671Q324.264 367.675 323.644 367.698Q323.025 367.72 322.406 367.76Q321.788 367.801 321.171 367.859Q320.554 367.917 319.938 367.992Q319.323 368.068 318.711 368.162Q318.098 368.255 317.488 368.366C301.357 296.557 220.664 288.207 196.623 357.227C195.413 360.702 194.144 364.2 193.805 367.884Q192.627 367.696 191.44 367.574Q190.253 367.451 189.061 367.394Q187.869 367.338 186.676 367.347Q185.483 367.356 184.292 367.431Q183.101 367.506 181.916 367.646Q180.731 367.787 179.556 367.992Q178.381 368.198 177.219 368.468Q176.056 368.739 174.911 369.073Q173.765 369.407 172.64 369.803Q171.515 370.2 170.413 370.658Q169.311 371.117 168.237 371.635Q167.162 372.153 166.118 372.73Q165.073 373.307 164.062 373.94Q163.051 374.574 162.076 375.263Q161.102 375.951 160.167 376.692Q159.232 377.433 158.339 378.225C150.761 366.976 145.08 338.3 143.74 325.171C144.4 318.056 143.541 310.695 144.059 303.501C145.31 286.151 153.739 260.036 163.651 245.924Z"/>
	<path fill="#5CB901" transform="scale(0.0625 0.0625)" d="M252.204 201.394C246.098 197.711 241.848 196.3 237.373 189.709C220.229 164.452 254.436 163.827 270.186 167.915C278.575 170.093 280.08 174.965 277.421 182.945C274.624 191.341 267.286 197.517 259.621 201.394C257.26 201.955 254.576 201.864 252.204 201.394Z"/>
	<path fill="#F6C8A2" transform="scale(0.0625 0.0625)" d="M327.117 83.2183C338.753 68.1739 366.217 76.786 368.565 97.3687C369.564 106.12 365.757 112.077 360.967 118.882C351.902 102.24 341.603 94.4124 327.117 83.2183Z"/>
	<path fill="#F6D4BA" transform="scale(0.0625 0.0625)" d="M194.286 168.731C216.691 166.654 224.561 193.046 197.424 197.453C166.466 196.202 172.67 169.163 194.286 168.731Z"/>
	<path fill="#F6C8A2" transform="scale(0.0625 0.0625)" d="M151.938 118.882C127.825 94.5505 164.015 61.5048 186.384 83.2183C174.692 90.2552 158.114 106.196 151.938 118.882Z"/>
	<path fill="#F6D4BA" transform="scale(0.0625 0.0625)" d="M314.824 168.731C338.306 168.124 343.216 193.332 319.054 197.453C296.655 199.912 287.782 172.47 314.824 168.731Z"/>
	<path fill="#AD9E00" transform="scale(0.0625 0.0625)" d="M259.621 201.394C259.615 205.585 260.186 214.258 259.621 218.02C268.409 229.192 277.914 218.493 285.171 216.994C289.49 216.102 290.922 221.219 285.032 224.999C275.009 231.431 265.096 231.586 255.327 225.085C247.804 232.556 231.59 229.283 225.677 223.206C223.457 220.925 224.315 216.919 228.014 217.299C235.175 218.033 244.051 228.497 252.204 218.02L252.204 201.394C254.576 201.864 257.26 201.955 259.621 201.394Z"/>
	<path transform="scale(0.0625 0.0625)" d="M214.862 142.894Q215.102 142.845 215.344 142.807Q215.586 142.77 215.83 142.744Q216.073 142.719 216.318 142.705Q216.562 142.692 216.807 142.69Q217.052 142.689 217.297 142.7Q217.542 142.71 217.786 142.733Q218.03 142.755 218.272 142.79Q218.515 142.824 218.755 142.87Q218.996 142.917 219.234 142.975Q219.472 143.033 219.706 143.102Q219.941 143.172 220.172 143.253Q220.404 143.334 220.63 143.427Q220.857 143.519 221.079 143.622Q221.301 143.726 221.518 143.84Q221.735 143.954 221.946 144.079Q222.157 144.203 222.361 144.338Q222.566 144.473 222.763 144.618Q222.961 144.763 223.151 144.917Q223.342 145.071 223.524 145.234Q223.707 145.398 223.881 145.57Q224.055 145.742 224.221 145.923Q224.386 146.103 224.543 146.291Q224.699 146.48 224.846 146.676Q224.994 146.871 225.131 147.074Q225.268 147.277 225.396 147.486Q225.523 147.696 225.64 147.911Q225.756 148.126 225.862 148.347Q225.969 148.568 226.064 148.794Q226.159 149.019 226.243 149.25Q226.327 149.48 226.399 149.714Q226.472 149.948 226.533 150.185Q226.594 150.422 226.643 150.662Q226.692 150.902 226.73 151.144Q226.767 151.386 226.793 151.63Q226.818 151.873 226.832 152.118Q226.845 152.363 226.847 152.607Q226.848 152.852 226.838 153.097Q226.827 153.342 226.805 153.586Q226.782 153.83 226.748 154.072Q226.713 154.315 226.667 154.555Q226.621 154.796 226.563 155.034Q226.505 155.272 226.435 155.507Q226.365 155.742 226.284 155.973Q226.203 156.204 226.111 156.431Q226.019 156.658 225.915 156.88Q225.812 157.102 225.698 157.318Q225.584 157.535 225.459 157.746Q225.334 157.957 225.199 158.161Q225.065 158.366 224.92 158.564Q224.775 158.761 224.621 158.952Q224.467 159.142 224.303 159.325Q224.14 159.507 223.968 159.681Q223.796 159.856 223.615 160.021Q223.435 160.187 223.247 160.343Q223.058 160.5 222.862 160.647Q222.666 160.794 222.464 160.932Q222.261 161.069 222.052 161.196Q221.842 161.323 221.627 161.44Q221.412 161.557 221.191 161.663Q220.97 161.769 220.744 161.865Q220.519 161.96 220.288 162.044Q220.058 162.128 219.824 162.2Q219.59 162.273 219.353 162.334Q219.116 162.395 218.876 162.444Q218.636 162.493 218.394 162.531Q218.152 162.568 217.908 162.594Q217.665 162.619 217.42 162.633Q217.175 162.646 216.93 162.648Q216.685 162.649 216.441 162.639Q216.196 162.628 215.952 162.606Q215.708 162.584 215.465 162.549Q215.223 162.515 214.982 162.468Q214.742 162.422 214.504 162.364Q214.266 162.306 214.031 162.236Q213.796 162.167 213.565 162.086Q213.334 162.005 213.107 161.912Q212.88 161.82 212.658 161.717Q212.436 161.613 212.219 161.499Q212.002 161.385 211.791 161.26Q211.58 161.136 211.376 161.001Q211.171 160.866 210.974 160.721Q210.776 160.577 210.586 160.422Q210.395 160.268 210.213 160.105Q210.03 159.941 209.856 159.769Q209.682 159.597 209.516 159.417Q209.35 159.236 209.194 159.048Q209.037 158.859 208.89 158.664Q208.743 158.468 208.605 158.265Q208.468 158.062 208.341 157.853Q208.214 157.643 208.097 157.428Q207.98 157.213 207.874 156.992Q207.768 156.771 207.673 156.545Q207.577 156.32 207.493 156.09Q207.409 155.859 207.337 155.625Q207.264 155.391 207.203 155.154Q207.142 154.917 207.093 154.677Q207.044 154.437 207.006 154.195Q206.969 153.953 206.943 153.709Q206.918 153.465 206.904 153.221Q206.891 152.976 206.889 152.731Q206.888 152.486 206.898 152.241Q206.909 151.997 206.931 151.753Q206.954 151.509 206.988 151.266Q207.023 151.024 207.069 150.783Q207.115 150.542 207.173 150.304Q207.231 150.066 207.301 149.832Q207.371 149.597 207.452 149.365Q207.533 149.134 207.625 148.907Q207.718 148.68 207.821 148.458Q207.924 148.236 208.038 148.019Q208.153 147.803 208.277 147.592Q208.402 147.381 208.537 147.176Q208.672 146.972 208.816 146.774Q208.961 146.576 209.115 146.386Q209.27 146.196 209.433 146.013Q209.597 145.831 209.769 145.656Q209.941 145.482 210.121 145.316Q210.302 145.151 210.49 144.994Q210.679 144.838 210.875 144.69Q211.071 144.543 211.273 144.406Q211.476 144.269 211.686 144.141Q211.895 144.014 212.11 143.897Q212.326 143.781 212.547 143.674Q212.767 143.568 212.993 143.473Q213.219 143.378 213.449 143.294Q213.679 143.21 213.913 143.138Q214.147 143.065 214.385 143.004Q214.622 142.943 214.862 142.894Z"/>
	<path transform="scale(0.0625 0.0625)" d="M293.916 143.131Q294.235 143.066 294.557 143.023Q294.88 142.98 295.204 142.958Q295.529 142.936 295.854 142.935Q296.18 142.934 296.504 142.955Q296.829 142.976 297.151 143.018Q297.474 143.06 297.793 143.123Q298.112 143.187 298.427 143.271Q298.741 143.355 299.049 143.46Q299.357 143.564 299.657 143.689Q299.958 143.813 300.249 143.958Q300.541 144.102 300.823 144.265Q301.104 144.428 301.374 144.609Q301.644 144.79 301.902 144.989Q302.16 145.188 302.404 145.403Q302.648 145.618 302.877 145.849Q303.106 146.08 303.32 146.325Q303.534 146.57 303.731 146.829Q303.928 147.088 304.107 147.359Q304.287 147.631 304.448 147.913Q304.609 148.196 304.752 148.488Q304.894 148.781 305.017 149.082Q305.139 149.383 305.242 149.692Q305.345 150.001 305.427 150.316Q305.509 150.63 305.57 150.95Q305.631 151.269 305.671 151.592Q305.711 151.915 305.73 152.24Q305.749 152.565 305.746 152.89Q305.744 153.215 305.719 153.54Q305.695 153.864 305.65 154.186Q305.604 154.508 305.538 154.827Q305.471 155.145 305.384 155.459Q305.297 155.772 305.189 156.079Q305.081 156.386 304.953 156.685Q304.826 156.984 304.679 157.275Q304.531 157.565 304.365 157.845Q304.199 158.124 304.016 158.393Q303.831 158.661 303.63 158.917Q303.429 159.172 303.211 159.414Q302.994 159.656 302.761 159.883Q302.527 160.11 302.28 160.321Q302.032 160.532 301.771 160.726Q301.51 160.921 301.237 161.098Q300.964 161.274 300.68 161.433Q300.396 161.591 300.102 161.73Q299.808 161.87 299.505 161.989Q299.203 162.109 298.893 162.209Q298.583 162.308 298.268 162.387Q297.952 162.466 297.632 162.524Q297.395 162.567 297.156 162.598Q296.917 162.629 296.677 162.649Q296.437 162.669 296.197 162.677Q295.956 162.685 295.715 162.681Q295.475 162.677 295.234 162.661Q294.994 162.646 294.755 162.618Q294.515 162.591 294.278 162.552Q294.04 162.513 293.805 162.463Q293.569 162.412 293.336 162.35Q293.104 162.289 292.874 162.215Q292.645 162.142 292.419 162.058Q292.194 161.974 291.973 161.879Q291.751 161.784 291.535 161.678Q291.319 161.572 291.108 161.456Q290.897 161.34 290.692 161.213Q290.487 161.087 290.288 160.951Q290.09 160.814 289.898 160.669Q289.706 160.523 289.522 160.368Q289.338 160.213 289.161 160.049Q288.984 159.886 288.816 159.714Q288.648 159.541 288.488 159.361Q288.328 159.181 288.177 158.993Q288.026 158.806 287.885 158.611Q287.743 158.416 287.611 158.215Q287.479 158.013 287.357 157.805Q287.236 157.598 287.124 157.384Q287.012 157.171 286.911 156.952Q286.81 156.734 286.72 156.51Q286.63 156.287 286.55 156.06Q286.471 155.832 286.403 155.602Q286.335 155.371 286.278 155.137Q286.221 154.902 286.176 154.666Q286.131 154.429 286.097 154.191Q286.063 153.953 286.041 153.713Q286.019 153.473 286.009 153.233Q285.998 152.992 286 152.751Q286.001 152.51 286.014 152.27Q286.028 152.03 286.052 151.79Q286.077 151.551 286.114 151.313Q286.15 151.074 286.198 150.839Q286.246 150.603 286.306 150.369Q286.365 150.136 286.436 149.906Q286.507 149.676 286.589 149.449Q286.671 149.223 286.764 149.001Q286.856 148.778 286.96 148.561Q287.064 148.344 287.178 148.132Q287.292 147.92 287.416 147.713Q287.54 147.507 287.674 147.307Q287.809 147.107 287.952 146.914Q288.096 146.721 288.249 146.535Q288.402 146.349 288.564 146.171Q288.726 145.992 288.896 145.822Q289.067 145.652 289.245 145.491Q289.423 145.329 289.61 145.176Q289.796 145.023 289.989 144.88Q290.182 144.736 290.383 144.602Q290.583 144.469 290.789 144.345Q290.996 144.221 291.208 144.107Q291.42 143.993 291.637 143.89Q291.855 143.786 292.077 143.694Q292.3 143.601 292.526 143.52Q292.753 143.438 292.983 143.368Q293.213 143.297 293.447 143.238Q293.68 143.179 293.916 143.131Z"/>
</svg>
